<svg preserveAspectRatio="xMidYMid meet" width="30" height="30" overflow="visible" style="display: block;" viewBox="0 0 30 30" fill="none" xmlns="http://www.w3.org/2000/svg">
<g id="reddit link" clip-path="url(#clip0_9318_28351)">
<path id="Subtract" d="M4.393 4.39349C10.2509 -1.46453 19.748 -1.46453 25.6059 4.39349C31.4634 10.2514 31.4634 19.7484 25.6059 25.6064C19.748 31.4644 10.2509 31.4644 4.393 25.6064C-1.46486 19.7484 -1.46486 10.2515 4.393 4.39349ZM22.3305 5.66791C21.4782 5.66807 20.7377 6.14055 20.3686 6.83002L16.7143 5.9931C16.4085 5.92312 16.0992 6.0942 16.0043 6.38568L14.5844 10.7529C12.2217 10.809 10.0003 11.405 8.26996 12.4482C7.82112 12.1065 7.25638 11.9024 6.64398 11.9023C5.18581 11.9023 3.99948 13.0559 3.99945 14.4745C3.99945 15.3513 4.45312 16.1266 5.14398 16.5908C5.11512 16.7947 5.10005 17 5.10003 17.2079C5.10003 18.981 6.15983 20.6302 8.08343 21.8515C9.92725 23.0226 12.3676 23.6679 14.9545 23.6679C17.5416 23.6679 19.9827 23.0227 21.8266 21.8515C23.75 20.6302 24.809 18.9809 24.809 17.2079C24.809 17.0188 24.796 16.831 24.7719 16.6445C25.5089 16.1876 25.9994 15.3855 25.9994 14.4745C25.9994 13.0559 24.8131 11.9023 23.3549 11.9023C22.7241 11.9024 22.1449 12.1191 21.6899 12.4794C20.0777 11.4936 18.0314 10.9001 15.8383 10.7744L16.9819 7.25482L20.1264 7.97552C20.209 9.08896 21.1654 9.97042 22.3305 9.97064C23.5493 9.97064 24.5422 9.00565 24.5424 7.81927C24.5424 6.63341 23.5494 5.66791 22.3305 5.66791ZM17.7719 19.4999C18.007 19.2713 18.3871 19.2719 18.6215 19.4999C18.8556 19.7286 18.8556 20.0981 18.6215 20.3261C17.8556 21.0705 16.6739 21.4326 15.0102 21.4326C15.0068 21.4325 15.0025 21.4316 14.9985 21.4316C14.9951 21.4316 14.9908 21.4326 14.9868 21.4326C13.3232 21.4325 12.1425 21.0705 11.3774 20.3261C11.1426 20.0974 11.1427 19.7279 11.3774 19.4999C11.6118 19.2719 11.9919 19.272 12.227 19.4999C12.7549 20.0136 13.658 20.2636 14.9868 20.2636C14.9908 20.2636 14.9951 20.2646 14.9985 20.2646C15.0025 20.2646 15.0068 20.2636 15.0102 20.2636C16.3391 20.2636 17.2432 20.0136 17.7719 19.4999ZM11.7485 14.5956C12.5706 14.5956 13.2375 15.2663 13.2377 16.0654C13.2377 16.8653 12.5707 17.5146 11.7485 17.5146C10.9271 17.5143 10.2377 16.8652 10.2377 16.0654C10.238 15.2664 10.9273 14.5959 11.7485 14.5956ZM18.2719 14.5956C19.094 14.5956 19.7609 15.2656 19.7612 16.0654C19.7612 16.8653 19.0942 17.5146 18.2719 17.5146C17.4497 17.5146 16.7592 16.8653 16.7592 16.0654C16.7595 15.2656 17.4498 14.5957 18.2719 14.5956ZM22.3305 6.83685C22.8874 6.83685 23.3412 7.27818 23.3412 7.81927C23.341 8.36088 22.8873 8.8017 22.3305 8.8017C21.7739 8.80147 21.3209 8.36074 21.3207 7.81927C21.3207 7.27832 21.7738 6.83708 22.3305 6.83685Z" fill="var(--fill-0, white)"/>
</g>
<defs>
<clipPath id="clip0_9318_28351">
<rect width="30" height="30" fill="white"/>
</clipPath>
</defs>
</svg>
