<svg width="187" height="150" viewBox="0 0 187 150" fill="none" xmlns="http://www.w3.org/2000/svg"><svg x="137.669" y="87.186" width="40.126" height="54.318" viewBox="0 0 40.1355 54.3205" preserveAspectRatio="none" overflow="visible">
<g id="Group">
<path id="Vector" d="M16.4412 18.618C16.6147 17.5828 15.9174 16.6026 14.8835 16.4288C13.8497 16.255 12.8709 16.9534 12.6974 17.9886L7.14551 51.1046C6.97195 52.1398 7.66933 53.1199 8.70315 53.2937C9.73697 53.4675 10.7158 52.7692 10.8893 51.7339L16.4412 18.618Z" fill="#B3B3B3" stroke="#1D1D1B" stroke-width="2" stroke-miterlimit="10" stroke-linecap="round"/>
<path id="Vector_2" d="M10.3222 3.21709C10.4958 2.18184 9.79841 1.20172 8.76459 1.02792C7.73077 0.85412 6.75199 1.55246 6.57843 2.58771L1.02656 35.7036C0.853003 36.7389 1.55039 37.719 2.58421 37.8928C3.61803 38.0666 4.59681 37.3683 4.77037 36.333L10.3222 3.21709Z" fill="#B3B3B3" stroke="#1D1D1B" stroke-width="2" stroke-miterlimit="10" stroke-linecap="round"/>
<path id="Vector_3" d="M34.3375 16.4195C34.1885 15.3804 33.2266 14.659 32.1889 14.8082C31.1513 14.9574 30.4309 15.9207 30.5798 16.9597L35.3452 50.1983C35.4942 51.2374 36.4562 51.9588 37.4938 51.8096C38.5315 51.6604 39.2519 50.6971 39.1029 49.6581L34.3375 16.4195Z" fill="#B3B3B3" stroke="#1D1D1B" stroke-width="2" stroke-miterlimit="10" stroke-linecap="round"/>
<path id="Vector_4" d="M26.0309 8.10745C25.8819 7.06836 24.92 6.34696 23.8823 6.49613C22.8447 6.64531 22.1243 7.60859 22.2732 8.64767L27.0386 41.8862C27.1876 42.9253 28.1495 43.6467 29.1872 43.4975C30.2248 43.3483 30.9453 42.3851 30.7963 41.346L26.0309 8.10745Z" fill="#B3B3B3" stroke="#1D1D1B" stroke-width="2" stroke-miterlimit="10" stroke-linecap="round"/>
<path id="Vector_5" d="M20.7192 19.1284C30.8903 19.1284 39.1355 15.6238 39.1355 11.3007C39.1355 6.97755 30.8903 3.47298 20.7192 3.47298C10.5482 3.47298 2.30292 6.97755 2.30292 11.3007C2.30292 15.6238 10.5482 19.1284 20.7192 19.1284Z" fill="#B3B3B3" stroke="#1D1D1B" stroke-width="2" stroke-miterlimit="10" stroke-linecap="round"/>
<path id="Vector_6" d="M20.7192 16.6554C30.8903 16.6554 39.1355 13.1508 39.1355 8.82768C39.1355 4.50457 30.8903 1 20.7192 1C10.5482 1 2.30292 4.50457 2.30292 8.82768C2.30292 13.1508 10.5482 16.6554 20.7192 16.6554Z" fill="#B3B3B3" stroke="#1D1D1B" stroke-width="2" stroke-miterlimit="10" stroke-linecap="round"/>
</g>
</svg><svg x="118.152" y="22.306" width="69.282" height="90.838" viewBox="0 0 69.2756 90.8315" preserveAspectRatio="none" overflow="visible">
<g id="Group">
<path id="Vector" d="M20.6556 68.6613L12.3353 72.8306C12.9544 70.8004 13.2673 68.5727 13.3285 67.1557C13.4034 65.3367 13.1517 64.1036 12.9476 63.4224C12.8387 63.0545 12.4373 62.8706 12.0835 63.0136L9.28742 64.1309C9.04931 64.2263 8.77718 64.1718 8.59349 63.9946L5.83819 61.3445C5.49122 61.0107 4.91295 61.1606 4.76328 61.617L3.90608 64.3693C3.79723 64.7236 3.40944 64.9143 3.06247 64.7849L1.88552 64.3489C1.38208 64.165 0.885448 64.635 1.03512 65.146C1.76306 67.5508 3.40264 72.7216 4.46395 74.1659C5.8586 76.0666 6.74302 78.2194 9.0221 77.5858L21.8053 72.5172L20.6556 68.6545V68.6613Z" fill="#FFAD06"/>
<path id="Vector_2" d="M34.8403 22.4582C34.8403 22.4582 28.9555 23.2825 24.9688 22.901C20.9821 22.5195 15.9206 21.9472 15.6688 18.6567C15.4171 15.3663 17.3152 15.6115 21.6148 14.794C25.9145 13.9765 28.3228 13.9084 31.0441 7.75657C33.7654 1.60478 42.3715 -0.479879 46.9296 2.05441C51.4878 4.5887 54.8418 9.84804 52.7532 20.176C50.6646 30.5039 50.8551 34.0532 56.2976 41.5335C61.7402 49.0137 62.1212 54.3344 62.6246 59.8458C63.1281 65.3572 65.0942 70.6165 66.2984 72.0131C67.5025 73.4097 67.9447 74.1659 67.9447 74.1659C67.9447 74.1659 62.6314 77.8447 54.3995 74.1659C46.1677 70.4871 43.6437 63.7085 43.7661 57.7543C43.8886 51.8001 44.841 52.5563 44.841 52.5563" fill="white"/>
<path id="Vector_3" d="M33.6769 22.6012C33.6769 22.6012 35.3437 34.7549 32.4932 40.0756C29.6426 45.3962 22.8122 56.4872 22.0503 58.5786C21.2883 60.6701 17.6214 73.6004 26.4792 76.5775C35.3369 79.5546 44.4532 80.379 50.3993 77.6539C56.3453 74.9289 54.3859 74.1659 54.3859 74.1659" fill="white"/>
<g id="Vector_4">
</g>
<path id="Vector_5" d="M29.0168 11.9395C29.0168 11.9395 32.119 13.7789 33.2552 17.0081C34.3913 20.2373 32.2415 22.7511 32.2415 22.7511C32.2415 22.7511 23.1456 23.3642 18.9004 21.8655C14.6552 20.3667 14.9273 16.0816 17.6078 15.557C20.2882 15.0324 25.2818 15.2981 29.0168 11.9395Z" fill="#FFAD06"/>
<path id="Vector_6" d="M18.4445 27.336C18.4445 27.336 15.662 37.6026 17.8731 44.4493C20.0841 51.2959 24.0776 54.7159 24.0776 54.7159L33.3368 37.8887C33.3368 37.8887 25.7852 35.0206 24.0164 33.0518C22.2475 31.0829 22.3436 22.6924 18.8436 26.6925L18.4445 27.336Z" fill="white" stroke="#1D1D1B" stroke-width="2" stroke-miterlimit="10" stroke-linecap="round"/>
<path id="Vector_7" d="M34.8403 22.4582C34.8403 22.4582 28.9555 23.2825 24.9688 22.901C20.9821 22.5195 15.9206 21.9472 15.6688 18.6567C15.4171 15.3663 17.3152 15.6115 21.6148 14.794C25.9145 13.9765 28.3228 13.9084 31.0441 7.75657C33.7654 1.60478 42.3715 -0.479879 46.9296 2.05441C51.4878 4.5887 54.8418 9.84804 52.7532 20.176C50.6646 30.5039 50.8551 34.0532 56.2976 41.5335C61.7402 49.0137 62.1212 54.3344 62.6246 59.8458C63.1281 65.3572 65.0942 70.6165 66.2984 72.0131C67.5025 73.4097 67.9447 74.1659 67.9447 74.1659C67.9447 74.1659 62.6314 77.8447 54.3995 74.1659C46.1677 70.4871 43.6437 63.7085 43.7661 57.7543C43.8886 51.8001 44.841 52.5563 44.841 52.5563" stroke="#1D1D1B" stroke-width="2" stroke-miterlimit="10" stroke-linecap="round"/>
<path id="Vector_8" d="M39.7862 13.7721C40.4062 13.7721 40.9088 12.851 40.9088 11.7147C40.9088 10.5784 40.4062 9.65728 39.7862 9.65728C39.1663 9.65728 38.6637 10.5784 38.6637 11.7147C38.6637 12.851 39.1663 13.7721 39.7862 13.7721Z" fill="#1D1D1B"/>
<path id="Vector_9" d="M9.01529 77.5926L21.8053 72.524L20.6556 68.6613L12.3353 72.8306" stroke="#1D1D1B" stroke-width="2" stroke-miterlimit="10" stroke-linecap="round"/>
<path id="Vector_10" d="M1.87872 64.3489C1.37528 64.165 0.878648 64.635 1.02832 65.146C1.75626 67.5508 3.39583 72.7216 4.45714 74.1659C5.85179 76.0666 6.73621 78.2194 9.01529 77.5858C11.9475 76.7683 13.1925 70.1396 13.3217 67.1489C13.3966 65.3299 13.1448 64.0968 12.9407 63.4156C12.8319 63.0477 12.4305 62.8638 12.0767 63.0068L9.28062 64.1241C9.04251 64.2195 8.77038 64.165 8.58669 63.9878L5.83139 61.3377C5.48442 61.0039 4.90615 61.1538 4.75648 61.6102L3.89928 64.3625C3.79043 64.7168 3.40264 64.9075 3.05567 64.7781L1.87872 64.3421V64.3489Z" stroke="#1D1D1B" stroke-width="2" stroke-miterlimit="10" stroke-linecap="round"/>
<path id="Vector_11" d="M33.6769 22.6012C33.6769 22.6012 35.3437 34.7549 32.4932 40.0756C29.6426 45.3962 22.8122 56.4872 22.0503 58.5786C21.2883 60.6701 17.6214 73.6004 26.4792 76.5775C35.3369 79.5546 44.4532 80.379 50.3993 77.6539C56.3453 74.9289 54.3859 74.1659 54.3859 74.1659" stroke="black" stroke-width="2" stroke-miterlimit="10"/>
<path id="Vector_12" d="M31.0373 73.4233L24.6083 79.65C24.6083 79.65 21.921 78.7916 19.1385 79.65C17.703 80.0928 16.4716 80.5016 15.6144 80.8014C15.1858 80.9512 15.1994 81.5507 15.6212 81.6938L18.7031 82.7225C18.9888 82.8179 19.1113 83.1517 18.9616 83.4106L17.1179 86.5239C16.8934 86.8986 17.254 87.3483 17.669 87.2188L21.6012 85.9653C21.8462 85.8904 22.1115 86.0198 22.1931 86.2651L23.302 89.5079C23.4177 89.8485 23.8599 89.9439 24.098 89.6714C25.0233 88.6427 26.8533 86.5444 27.2275 85.6996C27.7309 84.5619 27.8602 81.2646 27.8602 81.2646L33.3232 74.7994" fill="#FFAD06"/>
<path id="Vector_13" d="M31.0373 73.4233L24.6083 79.65C24.6083 79.65 21.921 78.7916 19.1385 79.65C17.703 80.0928 16.4716 80.5016 15.6144 80.8014C15.1858 80.9512 15.1994 81.5507 15.6212 81.6938L18.7031 82.7225C18.9888 82.8179 19.1113 83.1517 18.9616 83.4106L17.1179 86.5239C16.8934 86.8986 17.254 87.3483 17.669 87.2188L21.6012 85.9653C21.8462 85.8904 22.1115 86.0198 22.1931 86.2651L23.302 89.5079C23.4177 89.8485 23.8599 89.9439 24.098 89.6714C25.0233 88.6427 26.8533 86.5444 27.2275 85.6996C27.7309 84.5619 27.8602 81.2646 27.8602 81.2646L33.3232 74.7994" stroke="#1D1D1B" stroke-width="2" stroke-miterlimit="10" stroke-linecap="round"/>
</g>
</svg><svg x="97.053" y="56.790" width="44.226" height="26.055" viewBox="0 0 44.2233 26.0528" preserveAspectRatio="none" overflow="visible">
<path id="Vector" d="M0 18.7619C0 18.7619 14.8038 26.6986 20.9879 26.0105C26.1312 25.4315 33.9072 19.4977 40.0301 15.6758C45.8197 12.0651 46.0646 6.5401 37.9143 7.04423C34.1385 7.27586 30.5941 7.50068 27.8864 7.66418C24.4916 7.87538 21.0968 7.24861 18.0013 5.83841L5.17045 0L0 18.7687V18.7619Z" fill="#9C816E"/>
</svg><svg x="96.053" y="55.393" width="35.435" height="28.452" viewBox="0 0 35.4384 28.4483" preserveAspectRatio="none" overflow="visible">
<path id="Vector" d="M1 20.1576C1 20.1576 15.8038 28.0943 21.9879 27.4062C26.6685 26.8817 30.3967 25.6213 33.5058 24.2315C34.0636 23.9795 34.4378 23.4277 34.4378 22.8145C34.4718 17.9776 33.1316 16.8399 33.4581 9.71388C33.4786 9.20975 33.0568 8.80099 32.5601 8.82824C30.0497 8.98493 31.3287 8.90318 28.8932 9.05987C25.4984 9.27106 22.0968 8.6443 19.0013 7.23409L6.17045 1.39569L1 20.1644V20.1576Z" fill="white" stroke="#1D1D1B" stroke-width="2" stroke-miterlimit="10"/>
</svg><svg x="-0.309" y="116.750" width="48.434" height="29.076" viewBox="0 0 48.4461 29.0752" preserveAspectRatio="none" overflow="visible">
<g id="Group">
<g id="Vector">
<path d="M35.7192 0.354686C32.0727 9.96728 13.1394 17.0251 4.32921 19.2052C-0.970497 20.5132 -0.0588667 28.0752 7.9077 28.0752C14.3912 28.0752 18.8813 27.9389 29.0385 27.9389C29.0385 27.9389 41.2843 28.0752 47.5568 15.8806" fill="#503E32"/>
<path d="M35.7192 0.354686C32.0727 9.96728 13.1394 17.0251 4.32921 19.2052C-0.970497 20.5132 -0.0588667 28.0752 7.9077 28.0752C14.3912 28.0752 18.8813 27.9389 29.0385 27.9389C29.0385 27.9389 41.2843 28.0752 47.5568 15.8806" stroke="black" stroke-width="2" stroke-miterlimit="10"/>
</g>
<path id="Vector_2" d="M14.1667 18.6806C12.8468 21.0241 13.9353 25.139 17.0104 25.7385" stroke="#928879" stroke-miterlimit="10" stroke-linecap="round"/>
<path id="Vector_3" d="M20.48 16.0509C19.2214 19.4096 21.5005 24.6076 25.6709 24.7643" stroke="#928879" stroke-miterlimit="10" stroke-linecap="round"/>
<path id="Vector_4" d="M28.9024 11.6432C27.2016 16.3643 32.0931 23.0952 35.7329 23.0952" stroke="#928879" stroke-miterlimit="10" stroke-linecap="round"/>
<path id="Vector_5" d="M5.47895 23.9876C10.3637 25.0981 38.1072 23.0952 41.917 14.8655" stroke="#928879" stroke-miterlimit="10" stroke-linecap="round"/>
<path id="Vector_6" d="M7.64237 21.8144C12.5271 22.9249 33.5218 18.4967 37.3248 10.267" stroke="#928879" stroke-miterlimit="10" stroke-linecap="round"/>
<path id="Vector_7" d="M9.21392 20.4723C8.39073 21.9847 8.82613 24.6961 10.4929 25.718" stroke="#928879" stroke-miterlimit="10" stroke-linecap="round"/>
</g>
</svg><svg x="34.165" y="0.675" width="75.155" height="148.650" viewBox="0 0 75.158 148.637" preserveAspectRatio="none" overflow="visible">
<path id="Vector" d="M2.44622 115.317C4.97021 123.867 7.052 126.006 12.1204 132.444C16.3044 137.751 20.4067 140.769 18.7127 144.141C17.6582 146.239 18.2025 148.637 20.5496 148.637H33.4621C35.8092 148.637 36.7752 146.594 35.435 144.795C34.0131 142.894 35.401 138.098 41.3742 137.397H44.1227C50.0959 138.098 51.4838 142.894 50.0619 144.795C48.7149 146.594 49.6878 148.637 52.0349 148.637H64.9474C67.2945 148.637 67.8387 146.239 66.7842 144.141C65.0902 140.769 63.1377 135.387 67.3217 130.08C72.3901 123.649 75.0569 115.787 75.1522 106.869C75.227 99.0689 74.5807 87.1401 72.9343 80.3547C72.9343 80.3547 69.9954 54.4872 69.0905 57.1714C65.9542 45.7535 67.8523 40.0173 68.2401 39.0362C68.2809 38.9341 68.3082 38.8796 68.3082 38.8796C70.7233 33.3818 72.0227 26.3852 72.635 22.829C73.6827 16.7726 72.0499 13.1211 66.1787 9.22427C59.4164 4.73476 53.6676 0 39.8435 0C23.1416 0 23.0055 12.542 18.7603 21.7527C17.4677 24.5595 16.5153 27.7205 16.1683 29.8052C16.1683 29.8052 15.624 33.1093 15.937 34.9419C18.4814 50.0931 5.97029 68.5348 2.26934 80.3547C-1.90784 93.7142 0.616153 109.138 2.44622 115.317Z" fill="#9C816E"/>
</svg><svg x="88.965" y="25.385" width="12.623" height="16.774" viewBox="0 0 12.6199 16.7812" preserveAspectRatio="none" overflow="visible">
<path id="Vector" d="M11.6199 10.2175C10.6538 13.2082 9.80341 15.6335 8.91899 15.7493C7.4495 15.9469 7.19778 15.1839 6.85762 14.782L7.36105 9.11387L6.85762 14.8501C6.51746 15.252 5.7691 15.7902 4.286 15.763C1.57152 15.7221 1.9661 14.816 1.00005 11.8253C1.00005 11.8253 6.04122 7.64916 7.64678 1.00005C7.88489 7.2404 11.6131 10.2107 11.6131 10.2107L11.6199 10.2175Z" fill="white" stroke="#231F20" stroke-width="2" stroke-linecap="round" stroke-linejoin="round"/>
</svg><svg x="72.425" y="12.375" width="4.488" height="5.700" viewBox="0 0 4.48013 5.69903" preserveAspectRatio="none" overflow="visible">
<path id="Vector" d="M1.69013 0.00368433C-0.507305 0.221688 -0.486892 3.71656 1.31596 5.69903C2.01669 4.50682 2.93512 3.98906 4.39782 3.75062C4.84683 1.93165 3.39094 -0.166631 1.68333 0.0104971L1.69013 0.00368433Z" fill="#231F20"/>
</svg><svg x="92.247" y="17.040" width="9.294" height="4.590" viewBox="0 0 9.29319 4.59179" preserveAspectRatio="none" overflow="visible">
<path id="Vector" d="M4.64659 9.22743e-05C6.5855 -0.00672033 9.29319 0.36116 9.29319 1.9485C6.88485 2.112 6.08207 2.12562 5.68068 3.36552C5.45617 4.05359 5.42215 4.59179 4.64659 4.59179C3.87102 4.59179 3.85062 4.03997 3.61251 3.36552C3.1703 2.12562 2.40834 2.112 0 1.9485C0 0.36116 2.70087 -0.00672033 4.64659 9.22743e-05Z" fill="#231F20"/>
</svg><svg x="75.745" y="20.194" width="22.158" height="21.982" viewBox="0 0 22.1443 21.9746" preserveAspectRatio="none" overflow="visible">
<path id="Vector" d="M21.1443 1C21.1443 8.30312 17.8039 20.6748 1 20.9746" stroke="#1D1D1B" stroke-width="2" stroke-miterlimit="10" stroke-linecap="round"/>
</svg><svg x="95.845" y="20.195" width="8.417" height="17.555" viewBox="0 0 8.40687 17.5603" preserveAspectRatio="none" overflow="visible">
<path id="Vector" d="M1.0456 1C1.0456 6.74984 0.0523314 13.5556 7.40661 16.56" stroke="#1D1D1B" stroke-width="2" stroke-miterlimit="10" stroke-linecap="round"/>
</svg><svg x="93.051" y="3.955" width="7.513" height="5.495" viewBox="0 0 7.50329 5.49366" preserveAspectRatio="none" overflow="visible">
<g id="Vector">
<path d="M0.18647 1.03651C4.11873 -0.544016 6.98969 1.49295 7.0033 5.49195Z" fill="#503E32"/>
<path d="M0.18647 1.03651C4.11873 -0.544016 6.98969 1.49295 7.0033 5.49195" stroke="black" stroke-miterlimit="10"/>
</g>
</svg><svg x="47.628" y="47.859" width="60.210" height="62.749" viewBox="0 0 60.2028 62.7494" preserveAspectRatio="none" overflow="visible">
<path id="Vector" d="M47.6372 62.0612L0.558926 15.2927L4.54561 0.652369L38.1535 12.6426L52.4199 6.92679L59.6653 51.2224L47.6372 62.0612Z" fill="#89989E" stroke="black" stroke-miterlimit="10"/>
</svg><svg x="58.456" y="60.495" width="46.395" height="70.470" viewBox="0 0 46.3979 70.47" preserveAspectRatio="none" overflow="visible">
<g id="Group">
<path id="Vector" d="M27.328 0.000371964C44.5197 -0.115442 42.0773 26.842 45.4449 41.1008C48.52 54.1129 45.0776 70.47 21.3003 70.47C-2.47691 70.47 -1.47684 55.6798 1.59822 42.6677C4.96581 28.4089 10.1363 -0.115442 27.328 0.000371964Z" fill="#C7B299"/>
</g>
</svg><svg x="59.840" y="134.430" width="34.165" height="4.455" viewBox="0 0 34.1658 4.45544" preserveAspectRatio="none" overflow="visible">
<path id="Vector" d="M11.2797 4.45544C24.6753 3.09973 27.2605 3.3518 30.4648 2.56154C32.3221 2.10509 34.1658 0 34.1658 0C34.0841 0.0613135 19.9947 4.44182 0 3.31774C0 3.31774 2.7417 4.60532 7.1978 4.40776C8.34074 4.35326 10.2116 4.435 11.2865 4.45544H11.2797Z" fill="#1D1D1B"/>
</svg><svg x="33.165" y="-0.321" width="77.154" height="150.642" viewBox="0 0 77.158 150.637" preserveAspectRatio="none" overflow="visible">
<path id="Vector" d="M3.44622 116.317C5.97022 124.867 8.052 127.006 13.1204 133.444C17.3044 138.751 21.4067 141.769 19.7127 145.141C18.6582 147.239 19.2025 149.637 21.5496 149.637H34.4621C36.8092 149.637 37.7753 147.594 36.435 145.795C35.0131 143.894 36.401 139.098 42.3742 138.397H45.1227C51.096 139.098 52.4838 143.894 51.0619 145.795C49.7149 147.594 50.6878 149.637 53.0349 149.637H65.9474C68.2945 149.637 68.8387 147.239 67.7842 145.141C66.0902 141.769 64.1377 136.387 68.3217 131.08C73.3901 124.649 76.057 116.787 76.1522 107.869C76.227 100.069 75.5807 88.1401 73.9343 81.3547C73.9343 81.3547 70.9954 55.4872 70.0905 58.1714C66.9542 46.7535 68.8523 41.0173 69.2401 40.0362C69.2809 39.9341 69.3082 39.8796 69.3082 39.8796C71.7233 34.3818 73.0227 27.3852 73.635 23.829C74.6827 17.7726 73.0499 14.1211 67.1788 10.2243C60.4164 5.73476 54.6676 1 40.8435 1C24.1416 1 24.0055 13.542 19.7603 22.7527C18.4677 25.5595 17.5153 28.7205 17.1683 30.8052C17.1683 30.8052 16.6241 34.1093 16.937 35.9419C19.4814 51.0931 6.97029 69.5348 3.26934 81.3547C-0.907834 94.7142 1.61616 110.138 3.44622 116.317Z" stroke="#1D1D1B" stroke-width="2" stroke-miterlimit="10"/>
</svg><svg x="47.961" y="41.436" width="56.318" height="26.682" viewBox="0 0 56.3152 26.6886" preserveAspectRatio="none" overflow="visible">
<path id="Vector" d="M53.5772 6.57563L45.2773 14.996C45.2773 14.996 13.7376 15.2821 2.23334 2.21556C1.37614 6.9912 1.16524 7.84958 1.16524 7.84958C1.16524 7.84958 26.2147 19.8193 35.2902 25.6509C44.284 24.5132 45.2773 16.086 45.2773 16.086C45.2773 16.086 48.9306 16.9035 52.618 23.43C54.3392 20.8276 55.2984 12.1211 55.2984 12.1211L53.5772 6.58244V6.57563Z" fill="#89989E" stroke="black" stroke-width="2" stroke-miterlimit="10"/>
</svg><svg x="88.880" y="58.386" width="15.643" height="52.753" viewBox="0 0 15.6558 52.7419" preserveAspectRatio="none" overflow="visible">
<path id="Vector" d="M6.29908 10.3291L3.02673 39.4189L8.33324 50.6393L14.599 40.3727L8.33324 8.80984L9.9524 4.81765L4.95884 1.39091L1.36674 6.63662L6.29908 10.3291Z" fill="#4D4D4D" stroke="black" stroke-width="2" stroke-miterlimit="10"/>
</svg><svg x="26.602" y="47.829" width="73.474" height="78.538" viewBox="0 0 73.4721 78.5434" preserveAspectRatio="none" overflow="visible">
<path id="Vector" d="M22.3659 2.05293C22.3659 2.05293 16.8689 11.3658 12.093 21.2713C7.31717 31.1768 1.78615 54.476 1.24189 59.8034C0.697637 65.1241 1.24189 69.6885 1.24189 69.6885C1.24189 69.6885 22.9782 77.5434 41.9591 77.5434H62.2123L72.3355 56.7582L46.218 13.2733L22.5156 1.44661L22.3591 2.05293H22.3659Z" fill="white" stroke="#1D1D1B" stroke-width="2" stroke-miterlimit="10"/>
</svg><svg x="91.227" y="48.973" width="21.186" height="77.445" viewBox="0 0 21.1988 77.4445" preserveAspectRatio="none" overflow="visible">
<path id="Vector" d="M12.0346 4.57145L10.3134 12.5218C10.3134 12.5218 12.538 31.5358 1.0202 55.3594C2.63937 73.8693 7.10908 76.3968 7.10908 76.3968L19.8651 74.1214C19.8651 74.1214 22.668 28.2998 12.0278 4.56464L12.0346 4.57145Z" fill="white" stroke="#1D1D1B" stroke-width="2" stroke-miterlimit="10"/>
</svg><svg x="94.277" y="60.545" width="14.039" height="44.031" viewBox="0 0 14.0444 44.0409" preserveAspectRatio="none" overflow="visible">
<path id="Vector" d="M1.00004 43.0408C11.7559 29.6064 13.0281 13.1267 13.0281 13.1267L10.579 7.54716C10.579 7.54716 13.0145 5.33306 11.8716 1.00025" stroke="#1D1D1B" stroke-width="2" stroke-miterlimit="10" stroke-linecap="round"/>
</svg><svg x="48.125" y="48.274" width="41.831" height="54.697" viewBox="0 0 41.8266 54.6893" preserveAspectRatio="none" overflow="visible">
<path id="Vector" d="M1.00027 1.00027C7.12317 17.4255 23.1311 20.7773 23.1311 20.7773L19.1785 28.9388C19.1785 28.9388 22.4712 37.5567 31.0773 45.4185C39.6834 53.2802 40.8263 53.689 40.8263 53.689" stroke="#1D1D1B" stroke-width="2" stroke-miterlimit="10" stroke-linecap="round"/>
</svg><svg x="55.258" y="4.695" width="8.583" height="13.095" viewBox="0 0 8.59435 13.0907" preserveAspectRatio="none" overflow="visible">
<path id="Vector" d="M8.59435 1.73406C0.723031 -3.05521 -2.99152 2.51069 2.87285 13.0907C3.03613 6.25082 8.59435 1.73406 8.59435 1.73406Z" fill="#503E32"/>
</svg><svg x="53.659" y="3.454" width="10.284" height="14.648" viewBox="0 0 10.2922 14.6309" preserveAspectRatio="none" overflow="visible">
<path id="Vector" d="M9.29209 2.27412C2.44806 -1.80663 -2.1101 4.43372 3.57059 13.6307" stroke="black" stroke-width="2" stroke-miterlimit="10" stroke-linecap="round"/>
</svg><svg x="77.975" y="8.451" width="31.862" height="18.460" viewBox="0 0 31.8489 18.4651" preserveAspectRatio="none" overflow="visible">
<g id="Group">
<path id="Vector" d="M13.215 10.1932C13.4205 6.0144 10.8552 2.49203 7.48526 2.3258C4.11528 2.15957 1.21673 5.41243 1.01117 9.59126C0.805617 13.7701 3.37089 17.2925 6.74087 17.4587C10.1109 17.6249 13.0094 14.3721 13.215 10.1932Z" stroke="#1D1D1B" stroke-width="2" stroke-miterlimit="10" stroke-linecap="round"/>
<path id="Vector_2" d="M30.841 6.65036C30.9885 3.65153 29.1489 1.12385 26.7321 1.00464C24.3154 0.88543 22.2366 3.21983 22.0891 6.21867C21.9416 9.2175 23.7812 11.7452 26.198 11.8644C28.6147 11.9836 30.6935 9.6492 30.841 6.65036Z" stroke="#1D1D1B" stroke-width="2" stroke-miterlimit="10" stroke-linecap="round"/>
<path id="Vector_3" d="M12.4664 6.11371C16.5347 3.26604 22.2154 5.18039 22.2154 5.18039" stroke="#1D1D1B" stroke-width="2" stroke-miterlimit="10" stroke-linecap="round"/>
</g>
</svg><g transform="rotate(-38.74 57.51 10.40)"><svg x="53.198" y="5.609" width="8.629" height="9.588" viewBox="0 0 7.41828 5.32276" preserveAspectRatio="none" overflow="visible">
<path id="Vector" d="M2.66088 1H5.43809C5.98264 1 6.41828 1.44258 6.41828 1.98049V3.34227C6.41828 3.88699 5.97583 4.32276 5.43809 4.32276H2.66088C1.74195 4.32276 1 3.58059 1 2.66138C1 1.74217 1.74195 1 2.66088 1Z" fill="#B3B3B3" stroke="#1D1D1B" stroke-width="2" stroke-miterlimit="10" stroke-linecap="round"/>
</svg></g><svg x="52.331" y="10.084" width="54.081" height="46.313" viewBox="0 0 54.0948 46.3032" preserveAspectRatio="none" overflow="visible">
<path id="Vector" d="M4.39213 1.00004L1.24224 3.4594L14.3248 31.5546C15.9984 36.7049 19.9579 40.7857 25.0467 42.6046C30.1355 44.4236 36.9727 46.0655 42.9936 44.9277C54.7155 42.7136 53.0079 32.3244 53.0079 32.3244L52.4364 22.8072" stroke="#1D1D1B" stroke-width="2" stroke-miterlimit="10" stroke-linecap="round"/>
</svg><svg x="90.238" y="51.441" width="10.881" height="10.698" viewBox="0 0 10.8905 10.7115" preserveAspectRatio="none" overflow="visible">
<path id="Vector" d="M9.87413 2.91031L9.75848 2.16774C9.64282 1.41154 8.9353 0.90059 8.18014 1.0164L2.1661 1.96336C1.41094 2.07917 0.900698 2.78768 1.01635 3.54388L1.13201 4.28646C1.24766 5.04266 1.95519 5.5536 2.71035 5.43779L4.47919 5.15847L5.10508 8.5784C5.24115 9.32779 5.96229 9.82511 6.71064 9.68886L6.88752 9.65479C7.63587 9.51854 8.13251 8.7964 7.99645 8.04702L7.38416 4.69521L8.7244 4.48402C9.47955 4.36821 9.98979 3.6597 9.87413 2.9035V2.91031Z" fill="#B3B3B3" stroke="#1D1D1B" stroke-width="2" stroke-miterlimit="10" stroke-linecap="round"/>
</svg><svg x="87.958" y="54.040" width="6.053" height="2.365" viewBox="0 0 6.06866 2.37721" preserveAspectRatio="none" overflow="visible">
<g id="Vector">
<path d="M5.06842 1.00025C5.06842 1.00025 2.97303 1.55207 1.0001 1.32044Z" fill="#B3B3B3"/>
<path d="M5.06842 1.00025C5.06842 1.00025 2.97303 1.55207 1.0001 1.32044" stroke="#1D1D1B" stroke-width="2" stroke-miterlimit="10" stroke-linecap="round"/>
</g>
</svg><svg x="134.912" y="62.150" width="11.367" height="9.724" viewBox="0 0 11.368 9.72549" preserveAspectRatio="none" overflow="visible">
<g id="Group">
<path id="Vector" d="M5.76225 3.04378H1.74835C1.33504 3.04378 1 3.37929 1 3.79317V6.30702C1 6.7209 1.33504 7.05641 1.74835 7.05641H5.76225C6.17556 7.05641 6.5106 6.7209 6.5106 6.30702V3.79317C6.5106 3.37929 6.17556 3.04378 5.76225 3.04378Z" fill="#B3B3B3" stroke="#1D1D1B" stroke-width="2" stroke-miterlimit="10" stroke-linecap="round"/>
<path id="Vector_2" d="M7.70797 8.72549C9.17708 8.72549 10.368 6.99608 10.368 4.86275C10.368 2.72941 9.17708 1 7.70797 1C6.23886 1 5.04791 2.72941 5.04791 4.86275C5.04791 6.99608 6.23886 8.72549 7.70797 8.72549Z" fill="#B3B3B3" stroke="#1D1D1B" stroke-width="2" stroke-miterlimit="10" stroke-linecap="round"/>
</g>
</svg><svg x="96.092" y="60.096" width="42.595" height="36.933" viewBox="0 0 42.6002 36.9316" preserveAspectRatio="none" overflow="visible">
<path id="Vector" d="M1.03258 1.00002C1.03258 1.00002 -0.593388 35.1039 19.1291 35.9146C38.8517 36.7253 41.6002 7.96932 41.6002 7.96932" stroke="#1D1D1B" stroke-width="2" stroke-miterlimit="10" stroke-linecap="round"/>
</svg><svg x="141.989" y="64.635" width="2.094" height="4.740" viewBox="0 0 2.09539 4.74157" preserveAspectRatio="none" overflow="visible">
<path id="Vector" d="M1.0477 4.74157C1.62633 4.74157 2.09539 3.68014 2.09539 2.37079C2.09539 1.06144 1.62633 0 1.0477 0C0.469075 0 0 1.06144 0 2.37079C0 3.68014 0.469075 4.74157 1.0477 4.74157Z" fill="#1D1D1B"/>
</svg><svg x="33.800" y="57.409" width="37.679" height="52.042" viewBox="0 0 37.694 52.0511" preserveAspectRatio="none" overflow="visible">
<path id="Vector" d="M21.1422 35.2043C21.1422 35.2043 29.4897 40.7021 35.8916 46.4247C32.524 47.978 27.3943 51.2957 23.2648 51.0368C13.4409 48.414 5.22946 43.6179 2.72587 38.0247C-0.287953 31.2939 1.14753 17.5937 3.22251 11.7962C5.29749 5.99868 10.4951 0.194337 14.7608 1.0936C19.0264 1.99287 25.7956 10.5767 23.8975 21.1499C22.5845 28.4462 21.1422 35.2043 21.1422 35.2043Z" fill="white" stroke="#1D1D1B" stroke-width="2" stroke-miterlimit="10"/>
</svg><svg x="49.828" y="99.020" width="24.550" height="11.015" viewBox="0 0 24.5596 11.0208" preserveAspectRatio="none" overflow="visible">
<path id="Vector" d="M1.00001 10.0132C1.00001 10.0132 17.008 10.6195 23.5595 1.0001" stroke="#1D1D1B" stroke-width="2" stroke-miterlimit="10" stroke-linecap="round"/>
</svg></svg>