<svg preserveAspectRatio="xMidYMid meet" overflow="visible" style="display: block;" width="80" height="66.6181" viewBox="0 0 80 66.6181" fill="none" xmlns="http://www.w3.org/2000/svg">
<g id="Group">
<path id="Vector" d="M65.9932 28.5661H53.8625L53.9513 28.5317L52.6081 25.0868C52.5329 24.8949 52.597 24.6759 52.7648 24.5541L56.301 21.9816L58.5865 26.0785L60.3195 26.0305L62.8418 11.1647L63.6991 6.51175C64.0814 4.43746 62.774 2.41853 60.724 1.9178C57.6738 1.17224 51.9643 -0.0740582 48.058 0.00345085C41.8995 0.119099 35.1366 2.32749 34.8517 2.42099L34.5076 2.53541L9.42344 22.4343C1.03492 29.089 -2.10168 39.9108 1.43085 50.0029C4.96461 60.0963 14.1734 66.6181 24.8906 66.6181H38.7765V66.5702C39.0836 66.5899 39.392 66.6046 39.704 66.6046H65.992C73.7157 66.6046 80 60.3362 80 52.6333V42.5387C80 34.8345 73.7157 28.5674 65.992 28.5674L65.9932 28.5661ZM75.9235 52.6321C75.9235 58.0934 71.4684 62.5372 65.9932 62.5372H39.7053C34.2301 62.5372 29.7749 58.0934 29.7749 52.6321V42.5374C29.7749 39.1935 31.4499 36.2358 34.0019 34.4421C35.6177 33.3065 37.5825 32.6323 39.7053 32.6323H65.9932C71.4684 32.6323 75.9235 37.0761 75.9235 42.5374V52.6321ZM24.8906 62.552C14.0167 62.552 7.63004 55.3769 5.28037 48.6631C2.92946 41.9494 3.4512 32.369 11.9606 25.6171L27.0244 13.6672C30.3596 17.6005 36.2578 18.2304 40.3466 15.0193C40.3466 15.0193 33.03 16.0404 30.4953 10.9138L36.465 6.17834C37.8563 5.75019 43.3278 4.16064 48.1345 4.0696C51.6695 4.00439 57.326 5.27776 59.6769 5.85108L57.8378 15.8313L50.362 21.2692C48.7031 22.4761 48.0642 24.6525 48.8079 26.562L49.5899 28.5674H39.704C37.495 28.5674 35.4055 29.0816 33.5455 29.9933C24.0025 29.2367 17.03 36.8387 17.03 36.8387C17.03 36.8387 22.3991 34.1948 28.6562 33.9647C26.8036 36.3343 25.696 39.3091 25.696 42.5387V52.6333C25.696 56.5088 27.2871 60.0188 29.8502 62.552H24.8894H24.8906Z" fill="#372823"/>
<path id="Vector_2" d="M53.9596 35.8765L47.0758 58.0969H51.9219L58.8057 35.8765H53.9596Z" fill="#372823"/>
<path id="Vector_3" d="M47.5856 42.1558L48.4711 39.2941L49.205 36.9282L49.3962 36.3082L48.8905 36.6281L44.6636 39.3003L33.3629 46.4422L43.1403 56.5023L44.481 52.1754L39.63 47.184L47.5856 42.1558Z" fill="#372823"/>
<path id="Vector_4" d="M61.7779 40.6364L66.6289 45.6277L58.6733 50.656L56.8627 56.5023L72.8959 46.3684L63.1186 36.3082L61.7779 40.6364Z" fill="#372823"/>
<path id="Vector_5" d="M46.827 5.61824C45.1335 5.61824 43.7607 6.98756 43.7607 8.67677H49.8921C49.8921 6.98756 48.5193 5.61824 46.8258 5.61824H46.827Z" fill="#372823"/>
</g>
</svg>
